# AST/ASF file generated using VICON BodyLanguage
# -----------------------------------------------
:version 1.10
:name VICON
:units
  mass 1.0
  length 0.45
  angle deg
:documentation
   .ast/.asf automatically generated from VICON data using
   VICON BodyBuilder and BodyLanguage model FoxedUp or BRILLIANT.MOD
:root
   order TX TY TZ RX RY RZ
   axis XYZ
   position 0 0 0  
   orientation 0 0 0 
:bonedata
  begin
     id 1 
     name lhipjoint
     direction 0.62366 -0.717238 0.310833 
     length 2.53602 
     axis 0 0 0  XYZ
  end
  begin
     id 2 
     name lfemur
     direction 0.34202 -0.939693 0  
     length 7.40817  
     axis 0 0 20  XYZ
    dof rx ry rz
    limits (-160.0 20.0)
           (-70.0 70.0)
           (-60.0 70.0)
  end
  begin
     id 3 
     name ltibia
     direction 0.34202 -0.939693 0   
     length 7.7045   
     axis 0 0 20   XYZ
    dof rx
    limits (-10.0 170.0)
  end
  begin
     id 4 
     name lfoot
     direction 0.0673888 -0.185149 0.980397   
     length 2.09456   
     axis -90 7.62852e-016 20   XYZ
    dof rx rz
    limits (-45.0 90.0)
           (-70.0 20.0)
  end
  begin
     id 5 
     name ltoes
     direction 1.53575e-011 -4.21994e-011 1   
     length 1.05543   
     axis -90 7.62852e-016 20   XYZ
    dof rx
    limits (-90.0 20.0)
  end
  begin
     id 6 
     name rhipjoint
     direction -0.489018 -0.800347 0.346851   
     length 2.27268  
     axis 0 0 0  XYZ 
  end
  begin
     id 7 
     name rfemur
     direction -0.34202 -0.939693 0   
     length 7.55487   
     axis 0 0 -20   XYZ
    dof rx ry rz
    limits (-160.0 20.0)
           (-70.0 70.0)
           (-70.0 60.0)
  end
  begin
     id 8 
     name rtibia
     direction -0.34202 -0.939693 0   
     length 7.78969   
     axis 0 0 -20   XYZ
    dof rx
    limits (-10.0 170.0)
 end
 begin
     id 9 
     name rfoot
     direction -0.0859318 -0.236096 0.967923   
     length 2.19143  
     axis -90 -7.62852e-016 -20   XYZ
    dof rx rz
    limits (-45.0 90.0)
           (-20.0 70.0)
  end
  begin
     id 10 
     name rtoes
     direction -1.53538e-011 -4.21989e-011 1   
     length 1.09845   
     axis -90 -7.62852e-016 -20   XYZ
    dof rx
    limits (-90.0 20.0)
  end
  begin
     id 11 
     name lowerback
     direction -0.00762546 0.998978 -0.0445553   
     length 1.98161   
     axis 0 0 0   XYZ
    dof rx ry rz
    limits (-20.0 45.0)
           (-30.0 30.0)
           (-30.0 30.0)
  end
  begin
     id 12 
     name upperback
     direction 0.0422361 0.998867 -0.0219156   
     length 1.97558   
     axis 0 0 0   XYZ
    dof rx ry rz
    limits (-20.0 45.0)
           (-30.0 30.0)
           (-30.0 30.0)
  end
  begin
     id 13 
     name thorax
     direction 0.0442465 0.999021 7.47603e-005   
     length 1.97799   
     axis 0 0 0   XYZ
    dof rx ry rz
    limits (-20.0 45.0)
           (-30.0 30.0)
           (-30.0 30.0)
  end
  begin
     id 14 
     name lowerneck
     direction 0.00312169 0.984641 0.174564   
     length 1.78995   
     axis 0 0 0   XYZ
    dof rx ry rz
    limits (-20.0 45.0)
           (-30.0 30.0)
           (-30.0 30.0)
  end
  begin
     id 15 
     name upperneck
     direction -0.0383028 0.985255 -0.166749   
     length 1.83053   
     axis 0 0 0   XYZ
    dof rx ry rz
    limits (-20.0 45.0)
           (-30.0 30.0)
           (-30.0 30.0)
  end
  begin
     id 16
     name head
     direction -0.0129546 0.997059 -0.0755386  
     length 1.84088  
     axis 0 0 0   XYZ
    dof rx ry rz
    limits (-20.0 45.0)
           (-30.0 30.0)
           (-30.0 30.0)
  end
  begin
     id 17 
     name lclavicle
     direction 0.912857 0.370519 -0.171488  
     length 3.51279  
     axis 0 0 0   XYZ
    dof ry rz
    limits (-20.0 10.0)
           (0.0 20.0)
  end
  begin
     id 18 
     name lhumerus
     direction 1 -4.48962e-011 3.64361e-027   
     length 4.95663   
     axis 180 -30 -90   XYZ
    dof rx ry rz
    limits (-60.0 90.0)
           (-90.0 90.0)
           (-90.0 90.0)
  end
  begin
     id 19
     name lradius
     direction 1 -4.48974e-011 5.97202e-027   
     length 3.38177   
     axis 180 -30 -90   XYZ
    dof rx
    limits (-10.0 170.0)
  end
  begin
     id 20
     name lwrist
     direction 1 -4.4896e-011 9.83288e-027   
     length 1.69088   
     axis -9.31221e-015 90 90   XYZ
    dof ry
    limits (-180.0 0.0)
 end
  begin
     id 21 
     name lhand
     direction 1 -4.4902e-011 1.96551e-026   
     length 0.662909   
     axis -1.25475e-014 90 90   XYZ
    dof rx rz
    limits (-90.0 90.0)
           (-45.0 45.0)
  end
  begin
     id 22 
     name lfingers
     direction 1 -4.48971e-011 3.93277e-026   
     length 0.534454   
     axis -2.50945e-014 90 90   XYZ
    dof rx
    limits (0.0 90.0)
  end
  begin
     id 23
     name lthumb
     direction 0.707107 -6.34933e-011 0.707107   
     length 0.767373   
     axis -90 45 -4.80359e-014   XYZ
    dof rx rz
    limits (-45.0 45.0)
           (-45.0 45.0)
  end
  begin
     id 24 
     name rclavicle
     direction -0.900919 0.395364 -0.178976   
     length 3.40627  
     axis 0 0 0   XYZ 
    dof ry rz
    limits (-10.0 20.0)
           (-20.0 0.0)
  end
  begin
     id 25 
     name rhumerus
     direction -1 -4.48969e-011 1.03875e-027  
     length 5.08365   
     axis 180 30 90   XYZ
    dof rx ry rz
    limits (-90.0 60.0)
           (-90.0 90.0)
           (-90.0 90.0)
  end
  begin
     id 26 
     name rradius
     direction -1 -4.48951e-011 5.02733e-027   
     length 3.35984   
     axis 180 30 90   XYZ
    dof rx
    limits (-10.0 170.0)
  end
  begin
     id 27 
     name rwrist
     direction -1 -4.49011e-011 9.82828e-027   
     length 1.67992   
     axis -9.31221e-015 -90 -90   XYZ
    dof ry
    limits (-180.0 0.0)
  end
  begin
     id 28
     name rhand
     direction -1 -4.48894e-011 1.96774e-026   
     length 0.820764   
     axis -1.25475e-014 -90 -90   XYZ
    dof rx rz
    limits (-90.0 90.0)
           (-45.0 45.0)
  end
  begin
     id 29
     name rfingers
     direction -1 -4.49095e-011 3.92833e-026   
     length 0.661721   
     axis -2.50945e-014 -90 -90   XYZ
    dof rx
    limits (0.0 90.0)
  end
  begin
     id 30
     name rthumb
     direction -0.707107 -6.34881e-011 0.707107   
     length 0.950103   
     axis -90 -45 4.80359e-014   XYZ
    dof rx rz
    limits (-45.0 45.0)
           (-45.0 45.0)
  end
:hierarchy
  begin
    root lhipjoint rhipjoint lowerback
    lhipjoint lfemur
    lfemur ltibia
    ltibia lfoot
    lfoot ltoes
    rhipjoint rfemur
    rfemur rtibia
    rtibia rfoot
    rfoot rtoes
    lowerback upperback
    upperback thorax
    thorax lowerneck lclavicle rclavicle
    lowerneck upperneck
    upperneck head
    lclavicle lhumerus
    lhumerus lradius
    lradius lwrist
    lwrist lhand lthumb
    lhand lfingers
    rclavicle rhumerus
    rhumerus rradius
    rradius rwrist
    rwrist rhand rthumb
    rhand rfingers
  end

#!OML:ASF I:\golf\golf\golf 2\Subject 1\2002-09-07\Subject1.ASF
:FULLY-SPECIFIED
:DEGREES
17
root -7.21458 17.7909 0.339582 -65.2921 88.5428 -80.2991
lowerback 2.31595 1.86922 -3.52826
upperback 3.19375 2.49825 4.05059
thorax 1.66786 1.17256 6.16082
lowerneck -15.3733 -0.729799 1.45539
upperneck 36.7558 1.71037 -4.50992
head 15.5738 0.774092 -1.75259
rclavicle -3.10104e-014 -3.81667e-014
rhumerus -6.04418 -1.17969 -101.723
rradius 20.944
rwrist -35.5979
rhand -14.5823 -5.77612
rfingers 7.12502
rthumb 11.5676 -35.4369
lclavicle -3.10104e-014 -3.81667e-014
lhumerus -11.0697 -44.7702 110.718
lradius 27.4417
lwrist 41.8127
lhand -13.1035 67.8691
lfingers 7.12502
lthumb -167.007 82.5556
rfemur -29.4625 -1.75442 11.1509
rtibia 31.3332
rfoot -10.679 -9.04625
rtoes -6.97338
lfemur -28.2983 4.95638 -10.8888
ltibia 28.4323
lfoot -11.638 -4.00255
ltoes -17.9024
18
root -7.21272 17.7929 0.340033 -65.0053 88.4917 -80.0204
lowerback 2.32436 1.85856 -3.48957
upperback 3.18985 2.4845 4.06288
thorax 1.66186 1.16673 6.15149
lowerneck -15.387 -0.712168 1.45094
upperneck 36.7789 1.73732 -4.50122
head 15.5898 0.785925 -1.74399
rclavicle 1.11319e-014 -7.15625e-015
rhumerus -6.01751 -1.35707 -101.784
rradius 20.8857
rwrist -35.4328
rhand -14.6654 -5.69397
rfingers 7.12502
rthumb 11.4875 -35.3592
lclavicle 1.11319e-014 -7.15625e-015
lhumerus -11.0411 -44.4797 110.67
lradius 27.4171
lwrist 41.6902
lhand -12.9795 67.8369
lfingers 7.12502
lthumb -166.887 82.5954
rfemur -29.4525 -1.67805 11.1863
rtibia 31.3071
rfoot -10.7075 -9.07047
rtoes -7.04776
lfemur -28.3221 5.01613 -10.8553
ltibia 28.4466
lfoot -11.6651 -3.9766
ltoes -18.3349
19
root -7.21066 17.7919 0.341576 -63.8926 88.4694 -78.8906
lowerback 2.37146 1.85668 -3.4626
upperback 3.18247 2.48128 4.04407
thorax 1.62993 1.16674 6.11421
lowerneck -15.4206 -0.710071 1.43854
upperneck 36.83 1.72954 -4.44989
head 15.6221 0.788034 -1.72238
rclavicle -3.1408e-014 -2.78299e-014
rhumerus -6.05198 -1.27962 -101.833
rradius 20.9421
rwrist -35.6075
rhand -14.7638 -5.70051
rfingers 7.12502
rthumb 11.3926 -35.371
lclavicle -3.1408e-014 -2.78299e-014
lhumerus -11.0453 -44.0821 110.663
lradius 27.3337
lwrist 41.3953
lhand -12.7265 67.5492
lfingers 7.12502
lthumb -166.643 82.8989
rfemur -29.4176 -1.63397 11.1961
rtibia 31.2791
rfoot -10.7169 -9.06968
rtoes -7.13264
lfemur -28.2934 5.0697 -10.8503
ltibia 28.46
lfoot -11.7085 -3.94807
ltoes -18.5964
20
root -7.20896 17.7917 0.341269 -64.1944 88.5336 -79.1744
lowerback 2.4255 1.87338 -3.37825
upperback 3.16582 2.50224 3.93535
thorax 1.58701 1.18049 5.94822
lowerneck -15.4641 -0.752724 1.55092
upperneck 36.9093 1.63828 -4.45209
head 15.6677 0.76656 -1.76108
rclavicle 6.75868e-015 9.54166e-015
rhumerus -6.06923 -1.42631 -101.916
rradius 21.0149
rwrist -35.793
rhand -14.7616 -5.79692
rfingers 7.12502
rthumb 11.3947 -35.4673
lclavicle 6.75868e-015 9.54166e-015
lhumerus -11.1646 -43.9091 110.725
lradius 27.2324
lwrist 41.0537
lhand -12.564 67.4469
lfingers 7.12502
lthumb -166.487 83.0116
rfemur -29.3752 -1.68266 11.1377
rtibia 31.2645
rfoot -10.702 -9.06414
rtoes -7.17749
lfemur -28.2735 5.02817 -10.9079
ltibia 28.4735
lfoot -11.7275 -3.99425
ltoes -18.2306
21
root -7.20806 17.793 0.340402 -67.5158 88.515 -82.4684
lowerback 2.48438 1.88666 -3.1884
upperback 3.16718 2.52111 3.86879
thorax 1.56277 1.19471 5.76698
lowerneck -15.5091 -0.805266 1.66188
upperneck 36.9565 1.54665 -4.50144
head 15.6983 0.737745 -1.81937
rclavicle 1.15295e-014 -3.26007e-014
rhumerus -6.03428 -1.67204 -101.983
rradius 21.0425
rwrist -35.8645
rhand -14.654 -5.83416
rfingers 7.12502
rthumb 11.4985 -35.4988
lclavicle 1.15295e-014 -3.26007e-014
lhumerus -11.2276 -43.9829 110.747
lradius 27.2208
lwrist 41.0341
lhand -12.6271 67.5292
lfingers 7.12502
lthumb -166.547 82.9252
rfemur -29.3278 -1.75413 11.1965
rtibia 31.269
rfoot -10.7003 -9.0476
rtoes -7.11139
lfemur -28.2561 4.97272 -10.8501
ltibia 28.4828
lfoot -11.6963 -4.05924
ltoes -17.9216
22
root -7.20788 17.7912 0.339482 -69.9647 88.3988 -84.9219
lowerback 2.49852 1.87073 -3.01728
upperback 3.17435 2.50282 3.90007
thorax 1.56967 1.18895 5.70224
lowerneck -15.5195 -0.824361 1.6318
upperneck 36.9491 1.53232 -4.51721
head 15.6965 0.724796 -1.82327
rclavicle 2.3059e-014 4.92986e-014
rhumerus -6.00965 -1.7047 -101.985
rradius 21.0498
rwrist -35.8779
rhand -14.6042 -5.85531
rfingers 7.12502
rthumb 11.5464 -35.5173
lclavicle 2.3059e-014 4.92986e-014
lhumerus -11.1813 -43.979 110.728
lradius 27.2287
lwrist 41.1416
lhand -12.7787 67.5336
lfingers 7.12502
lthumb -166.693 82.9113
rfemur -29.3333 -1.76064 11.3405
rtibia 31.2793
rfoot -10.7341 -9.07055
rtoes -7.01901
lfemur -28.2594 4.99069 -10.7138
ltibia 28.4836
lfoot -11.7118 -4.04892
ltoes -18.248
23
root -7.20719 17.7887 0.338561 -69.7509 88.3937 -84.7218
lowerback 2.48935 1.85685 -3.04242
upperback 3.17258 2.48445 3.9328
thorax 1.57297 1.17913 5.75174
lowerneck -15.4825 -0.82955 1.53813
upperneck 36.9181 1.53318 -4.46795
head 15.6715 0.718492 -1.78426
rclavicle 1.07344e-014 4.29375e-014
rhumerus -6.02854 -1.63992 -101.937
rradius 21.076
rwrist -35.9287
rhand -14.6418 -5.95206
rfingers 7.12502
rthumb 11.5102 -35.616
lclavicle 1.07344e-014 4.29375e-014
lhumerus -11.1367 -44.1619 110.706
lradius 27.2678
lwrist 41.4618
lhand -12.9095 67.4894
lfingers 7.12502
lthumb -166.82 82.9472
rfemur -29.3511 -1.73307 11.3333
rtibia 31.2886
rfoot -10.7708 -9.15059
rtoes -7.17957
lfemur -28.258 5.00348 -10.7135
ltibia 28.4739
lfoot -11.7594 -4.00551
ltoes -18.6952
24
root -7.20568 17.7894 0.33864 -68.6777 88.4822 -83.6349
lowerback 2.50045 1.85093 -3.17755
upperback 3.17258 2.47436 3.93084
thorax 1.56309 1.17147 5.82667
lowerneck -15.4564 -0.828234 1.46441
upperneck 36.9079 1.53004 -4.39402
head 15.6589 0.717058 -1.73943
rclavicle -3.26007e-014 1.35174e-014
rhumerus -6.04798 -1.68987 -101.914
rradius 21.1015
rwrist -35.9307
rhand -14.7049 -5.98865
rfingers 7.12502
rthumb 11.4493 -35.656
lclavicle -3.26007e-014 1.35174e-014
lhumerus -11.1014 -44.5012 110.642
lradius 27.3492
lwrist 41.897
lhand -12.9771 67.3485
lfingers 7.12502
lthumb -166.885 83.0839
rfemur -29.3361 -1.74764 11.2274
rtibia 31.2989
rfoot -10.7891 -9.1541
rtoes -7.27765
lfemur -28.2271 4.97638 -10.8152
ltibia 28.4521
lfoot -11.7496 -3.95068
ltoes -19.1
